<mxfile host="app.diagrams.net" agent="Mozilla/5.0 (Windows NT 10.0; Win64; x64) AppleWebKit/537.36 (KHTML, like Gecko) Chrome/131.0.0.0 Safari/537.36" version="26.0.5">
  <diagram name="Pagina-1" id="Ex_JErbC6RZKfe_mfZBc">
    <mxGraphModel dx="2868" dy="391" grid="1" gridSize="10" guides="1" tooltips="1" connect="1" arrows="1" fold="1" page="1" pageScale="1" pageWidth="827" pageHeight="1169" math="0" shadow="0">
      <root>
        <mxCell id="0" />
        <mxCell id="1" parent="0" />
        <mxCell id="LPUQlXUYQwh0Yq7uciQO-1" value="" style="rounded=1;whiteSpace=wrap;html=1;strokeWidth=2;absoluteArcSize=1;arcSize=0;strokeColor=none;" vertex="1" parent="1">
          <mxGeometry x="150" y="1230" width="990" height="450" as="geometry" />
        </mxCell>
        <mxCell id="LPUQlXUYQwh0Yq7uciQO-2" style="edgeStyle=orthogonalEdgeStyle;rounded=0;orthogonalLoop=1;jettySize=auto;html=1;strokeWidth=2;endArrow=none;endFill=0;startArrow=classic;startFill=1;" edge="1" parent="1" source="LPUQlXUYQwh0Yq7uciQO-3" target="LPUQlXUYQwh0Yq7uciQO-6">
          <mxGeometry relative="1" as="geometry" />
        </mxCell>
        <mxCell id="LPUQlXUYQwh0Yq7uciQO-3" value="83dcd20" style="ellipse;whiteSpace=wrap;html=1;aspect=fixed;strokeWidth=2;fillColor=#dae8fc;strokeColor=#6c8ebf;fontSize=16;" vertex="1" parent="1">
          <mxGeometry x="390" y="1391" width="80" height="80" as="geometry" />
        </mxCell>
        <mxCell id="LPUQlXUYQwh0Yq7uciQO-4" value="&quot;first commit&quot;" style="text;html=1;align=center;verticalAlign=middle;whiteSpace=wrap;rounded=0;fontSize=16;" vertex="1" parent="1">
          <mxGeometry x="380" y="1361" width="104.62" height="30" as="geometry" />
        </mxCell>
        <mxCell id="LPUQlXUYQwh0Yq7uciQO-5" style="edgeStyle=orthogonalEdgeStyle;rounded=0;orthogonalLoop=1;jettySize=auto;html=1;entryX=0;entryY=0.5;entryDx=0;entryDy=0;strokeWidth=2;endArrow=none;endFill=0;startArrow=classic;startFill=1;" edge="1" parent="1" source="LPUQlXUYQwh0Yq7uciQO-6" target="LPUQlXUYQwh0Yq7uciQO-9">
          <mxGeometry relative="1" as="geometry" />
        </mxCell>
        <mxCell id="LPUQlXUYQwh0Yq7uciQO-6" value="2e59c2b" style="ellipse;whiteSpace=wrap;html=1;aspect=fixed;strokeWidth=2;fillColor=#dae8fc;strokeColor=#6c8ebf;fontSize=16;" vertex="1" parent="1">
          <mxGeometry x="541" y="1391" width="80" height="80" as="geometry" />
        </mxCell>
        <mxCell id="LPUQlXUYQwh0Yq7uciQO-7" value="&quot;second commit&quot;" style="text;html=1;align=center;verticalAlign=middle;whiteSpace=wrap;rounded=0;fontSize=16;" vertex="1" parent="1">
          <mxGeometry x="528.62" y="1361" width="124.12" height="30" as="geometry" />
        </mxCell>
        <mxCell id="LPUQlXUYQwh0Yq7uciQO-8" style="edgeStyle=orthogonalEdgeStyle;rounded=0;orthogonalLoop=1;jettySize=auto;html=1;entryX=0;entryY=0.5;entryDx=0;entryDy=0;strokeWidth=2;startArrow=classic;startFill=1;endArrow=none;endFill=0;" edge="1" parent="1" source="LPUQlXUYQwh0Yq7uciQO-9" target="LPUQlXUYQwh0Yq7uciQO-10">
          <mxGeometry relative="1" as="geometry" />
        </mxCell>
        <mxCell id="LPUQlXUYQwh0Yq7uciQO-9" value="b377dbe" style="ellipse;whiteSpace=wrap;html=1;aspect=fixed;strokeWidth=2;fillColor=#dae8fc;strokeColor=#6c8ebf;fontSize=16;" vertex="1" parent="1">
          <mxGeometry x="687.62" y="1391" width="80" height="80" as="geometry" />
        </mxCell>
        <mxCell id="LPUQlXUYQwh0Yq7uciQO-10" value="2e7a67c" style="ellipse;whiteSpace=wrap;html=1;aspect=fixed;strokeWidth=2;fillColor=#dae8fc;strokeColor=#6c8ebf;fontSize=16;" vertex="1" parent="1">
          <mxGeometry x="830.37" y="1391" width="80" height="80" as="geometry" />
        </mxCell>
        <mxCell id="LPUQlXUYQwh0Yq7uciQO-11" style="edgeStyle=orthogonalEdgeStyle;rounded=0;orthogonalLoop=1;jettySize=auto;html=1;endArrow=none;endFill=0;startArrow=classic;startFill=1;strokeWidth=2;" edge="1" parent="1">
          <mxGeometry relative="1" as="geometry">
            <mxPoint x="869.8699999999999" y="1581" as="targetPoint" />
            <mxPoint x="869.8699999999999" y="1541" as="sourcePoint" />
          </mxGeometry>
        </mxCell>
        <mxCell id="LPUQlXUYQwh0Yq7uciQO-12" value="HEAD" style="text;html=1;align=center;verticalAlign=middle;whiteSpace=wrap;rounded=0;fillColor=#f8cecc;strokeColor=#b85450;fontSize=16;" vertex="1" parent="1">
          <mxGeometry x="840.37" y="1571" width="60" height="30" as="geometry" />
        </mxCell>
        <mxCell id="LPUQlXUYQwh0Yq7uciQO-13" value="&quot;third commit&quot;" style="text;html=1;align=center;verticalAlign=middle;whiteSpace=wrap;rounded=0;fontSize=16;" vertex="1" parent="1">
          <mxGeometry x="667.62" y="1361" width="124.25" height="30" as="geometry" />
        </mxCell>
        <mxCell id="LPUQlXUYQwh0Yq7uciQO-14" value="&quot;fourth commit&quot;" style="text;html=1;align=center;verticalAlign=middle;whiteSpace=wrap;rounded=0;fontSize=16;" vertex="1" parent="1">
          <mxGeometry x="786.12" y="1361" width="168.5" height="30" as="geometry" />
        </mxCell>
        <mxCell id="LPUQlXUYQwh0Yq7uciQO-15" value="master" style="text;html=1;align=center;verticalAlign=middle;whiteSpace=wrap;rounded=0;fillColor=#dae8fc;strokeColor=#6c8ebf;fontSize=16;" vertex="1" parent="1">
          <mxGeometry x="840.37" y="1511" width="60" height="30" as="geometry" />
        </mxCell>
        <mxCell id="LPUQlXUYQwh0Yq7uciQO-16" value="" style="endArrow=classic;html=1;rounded=0;entryX=0.5;entryY=1;entryDx=0;entryDy=0;exitX=0.5;exitY=0;exitDx=0;exitDy=0;strokeWidth=2;" edge="1" parent="1" source="LPUQlXUYQwh0Yq7uciQO-15">
          <mxGeometry width="50" height="50" relative="1" as="geometry">
            <mxPoint x="810.37" y="1541" as="sourcePoint" />
            <mxPoint x="870.3699999999999" y="1471" as="targetPoint" />
          </mxGeometry>
        </mxCell>
        <mxCell id="LPUQlXUYQwh0Yq7uciQO-17" value="" style="rounded=1;whiteSpace=wrap;html=1;strokeWidth=2;absoluteArcSize=1;arcSize=0;strokeColor=none;" vertex="1" parent="1">
          <mxGeometry x="160" y="1770" width="990" height="450" as="geometry" />
        </mxCell>
        <mxCell id="LPUQlXUYQwh0Yq7uciQO-18" style="edgeStyle=orthogonalEdgeStyle;rounded=0;orthogonalLoop=1;jettySize=auto;html=1;strokeWidth=2;endArrow=none;endFill=0;startArrow=classic;startFill=1;" edge="1" parent="1" source="LPUQlXUYQwh0Yq7uciQO-19" target="LPUQlXUYQwh0Yq7uciQO-22">
          <mxGeometry relative="1" as="geometry" />
        </mxCell>
        <mxCell id="LPUQlXUYQwh0Yq7uciQO-19" value="83dcd20" style="ellipse;whiteSpace=wrap;html=1;aspect=fixed;strokeWidth=2;fillColor=#dae8fc;strokeColor=#6c8ebf;fontSize=16;" vertex="1" parent="1">
          <mxGeometry x="400" y="1907" width="80" height="80" as="geometry" />
        </mxCell>
        <mxCell id="LPUQlXUYQwh0Yq7uciQO-20" value="&quot;first commit&quot;" style="text;html=1;align=center;verticalAlign=middle;whiteSpace=wrap;rounded=0;fontSize=16;" vertex="1" parent="1">
          <mxGeometry x="390" y="1877" width="104.62" height="30" as="geometry" />
        </mxCell>
        <mxCell id="LPUQlXUYQwh0Yq7uciQO-21" style="edgeStyle=orthogonalEdgeStyle;rounded=0;orthogonalLoop=1;jettySize=auto;html=1;entryX=0;entryY=0.5;entryDx=0;entryDy=0;strokeWidth=2;endArrow=none;endFill=0;startArrow=classic;startFill=1;" edge="1" parent="1" source="LPUQlXUYQwh0Yq7uciQO-22" target="LPUQlXUYQwh0Yq7uciQO-25">
          <mxGeometry relative="1" as="geometry" />
        </mxCell>
        <mxCell id="LPUQlXUYQwh0Yq7uciQO-22" value="2e59c2b" style="ellipse;whiteSpace=wrap;html=1;aspect=fixed;strokeWidth=2;fillColor=#dae8fc;strokeColor=#6c8ebf;fontSize=16;" vertex="1" parent="1">
          <mxGeometry x="551" y="1907" width="80" height="80" as="geometry" />
        </mxCell>
        <mxCell id="LPUQlXUYQwh0Yq7uciQO-23" value="&quot;second commit&quot;" style="text;html=1;align=center;verticalAlign=middle;whiteSpace=wrap;rounded=0;fontSize=16;" vertex="1" parent="1">
          <mxGeometry x="538.62" y="1877" width="124.12" height="30" as="geometry" />
        </mxCell>
        <mxCell id="LPUQlXUYQwh0Yq7uciQO-24" style="edgeStyle=orthogonalEdgeStyle;rounded=0;orthogonalLoop=1;jettySize=auto;html=1;entryX=0;entryY=0.5;entryDx=0;entryDy=0;strokeWidth=2;startArrow=classic;startFill=1;endArrow=none;endFill=0;" edge="1" parent="1" source="LPUQlXUYQwh0Yq7uciQO-25" target="LPUQlXUYQwh0Yq7uciQO-26">
          <mxGeometry relative="1" as="geometry" />
        </mxCell>
        <mxCell id="LPUQlXUYQwh0Yq7uciQO-25" value="b377dbe" style="ellipse;whiteSpace=wrap;html=1;aspect=fixed;strokeWidth=2;fillColor=#dae8fc;strokeColor=#6c8ebf;fontSize=16;" vertex="1" parent="1">
          <mxGeometry x="697.62" y="1907" width="80" height="80" as="geometry" />
        </mxCell>
        <mxCell id="LPUQlXUYQwh0Yq7uciQO-26" value="2e7a67c" style="ellipse;whiteSpace=wrap;html=1;aspect=fixed;strokeWidth=2;fillColor=#dae8fc;strokeColor=#6c8ebf;fontSize=16;" vertex="1" parent="1">
          <mxGeometry x="840.37" y="1907" width="80" height="80" as="geometry" />
        </mxCell>
        <mxCell id="LPUQlXUYQwh0Yq7uciQO-27" style="edgeStyle=orthogonalEdgeStyle;rounded=0;orthogonalLoop=1;jettySize=auto;html=1;endArrow=none;endFill=0;startArrow=classic;startFill=1;strokeWidth=2;" edge="1" parent="1">
          <mxGeometry relative="1" as="geometry">
            <mxPoint x="879.8699999999999" y="2081" as="targetPoint" />
            <mxPoint x="879.8699999999999" y="2041" as="sourcePoint" />
          </mxGeometry>
        </mxCell>
        <mxCell id="LPUQlXUYQwh0Yq7uciQO-28" value="HEAD" style="text;html=1;align=center;verticalAlign=middle;whiteSpace=wrap;rounded=0;fillColor=#f8cecc;strokeColor=#b85450;fontSize=16;" vertex="1" parent="1">
          <mxGeometry x="850.37" y="2060" width="60" height="30" as="geometry" />
        </mxCell>
        <mxCell id="LPUQlXUYQwh0Yq7uciQO-29" value="&quot;third commit&quot;" style="text;html=1;align=center;verticalAlign=middle;whiteSpace=wrap;rounded=0;fontSize=16;" vertex="1" parent="1">
          <mxGeometry x="677.62" y="1877" width="124.25" height="30" as="geometry" />
        </mxCell>
        <mxCell id="LPUQlXUYQwh0Yq7uciQO-30" value="&quot;fourth commit&quot;" style="text;html=1;align=center;verticalAlign=middle;whiteSpace=wrap;rounded=0;fontSize=16;" vertex="1" parent="1">
          <mxGeometry x="796.12" y="1877" width="168.5" height="30" as="geometry" />
        </mxCell>
        <mxCell id="LPUQlXUYQwh0Yq7uciQO-31" value="master" style="text;html=1;align=center;verticalAlign=middle;whiteSpace=wrap;rounded=0;fillColor=#dae8fc;strokeColor=#6c8ebf;fontSize=16;" vertex="1" parent="1">
          <mxGeometry x="850.37" y="2011" width="60" height="30" as="geometry" />
        </mxCell>
        <mxCell id="LPUQlXUYQwh0Yq7uciQO-32" value="" style="endArrow=classic;html=1;rounded=0;entryX=0.5;entryY=1;entryDx=0;entryDy=0;exitX=0.5;exitY=0;exitDx=0;exitDy=0;strokeWidth=2;" edge="1" parent="1" source="LPUQlXUYQwh0Yq7uciQO-31">
          <mxGeometry width="50" height="50" relative="1" as="geometry">
            <mxPoint x="820.37" y="2057" as="sourcePoint" />
            <mxPoint x="880.3699999999999" y="1987" as="targetPoint" />
          </mxGeometry>
        </mxCell>
        <mxCell id="LPUQlXUYQwh0Yq7uciQO-33" value="&lt;span style=&quot;font-size: 16px;&quot;&gt;&lt;b&gt;git rebase -i&amp;nbsp;&lt;/b&gt;&lt;/span&gt;&lt;span style=&quot;color: rgb(0, 0, 0); font-size: 16px;&quot;&gt;&lt;b&gt;83dcd20&lt;/b&gt;&lt;/span&gt;" style="rounded=1;whiteSpace=wrap;html=1;fillColor=#f5f5f5;fontColor=#333333;strokeColor=#666666;" vertex="1" parent="1">
          <mxGeometry x="559" y="1770" width="192" height="40" as="geometry" />
        </mxCell>
        <mxCell id="LPUQlXUYQwh0Yq7uciQO-34" value="rebase from this" style="rounded=1;whiteSpace=wrap;html=1;strokeColor=none;fillColor=#fff2cc;fontSize=16;" vertex="1" parent="1">
          <mxGeometry x="382.31" y="2131" width="120" height="60" as="geometry" />
        </mxCell>
        <mxCell id="LPUQlXUYQwh0Yq7uciQO-35" value="" style="shape=flexArrow;endArrow=classic;html=1;rounded=0;fillColor=#fff2cc;strokeColor=none;" edge="1" parent="1">
          <mxGeometry width="50" height="50" relative="1" as="geometry">
            <mxPoint x="442.11028169014094" y="2141" as="sourcePoint" />
            <mxPoint x="442.42" y="2100" as="targetPoint" />
          </mxGeometry>
        </mxCell>
        <mxCell id="LPUQlXUYQwh0Yq7uciQO-36" value="&lt;font style=&quot;font-size: 16px;&quot;&gt;squash this&lt;/font&gt;" style="rounded=1;whiteSpace=wrap;html=1;strokeColor=none;fillColor=#fff2cc;" vertex="1" parent="1">
          <mxGeometry x="681.87" y="2131" width="120" height="60" as="geometry" />
        </mxCell>
        <mxCell id="LPUQlXUYQwh0Yq7uciQO-37" value="" style="shape=flexArrow;endArrow=classic;html=1;rounded=0;fillColor=#fff2cc;strokeColor=none;" edge="1" parent="1">
          <mxGeometry width="50" height="50" relative="1" as="geometry">
            <mxPoint x="741.6702816901409" y="2141" as="sourcePoint" />
            <mxPoint x="741.98" y="2100" as="targetPoint" />
          </mxGeometry>
        </mxCell>
        <mxCell id="LPUQlXUYQwh0Yq7uciQO-38" value="squash this" style="rounded=1;whiteSpace=wrap;html=1;strokeColor=none;fillColor=#fff2cc;fontSize=16;" vertex="1" parent="1">
          <mxGeometry x="820.37" y="2132" width="120" height="60" as="geometry" />
        </mxCell>
        <mxCell id="LPUQlXUYQwh0Yq7uciQO-39" value="" style="shape=flexArrow;endArrow=classic;html=1;rounded=0;fillColor=#fff2cc;strokeColor=none;" edge="1" parent="1">
          <mxGeometry width="50" height="50" relative="1" as="geometry">
            <mxPoint x="880.1702816901409" y="2142" as="sourcePoint" />
            <mxPoint x="880.48" y="2101" as="targetPoint" />
          </mxGeometry>
        </mxCell>
        <mxCell id="LPUQlXUYQwh0Yq7uciQO-40" value="" style="rounded=1;whiteSpace=wrap;html=1;strokeWidth=2;absoluteArcSize=1;arcSize=0;strokeColor=none;" vertex="1" parent="1">
          <mxGeometry x="170" y="2300" width="990" height="450" as="geometry" />
        </mxCell>
        <mxCell id="LPUQlXUYQwh0Yq7uciQO-41" style="edgeStyle=orthogonalEdgeStyle;rounded=0;orthogonalLoop=1;jettySize=auto;html=1;strokeWidth=2;endArrow=none;endFill=0;startArrow=classic;startFill=1;" edge="1" parent="1" source="LPUQlXUYQwh0Yq7uciQO-42" target="LPUQlXUYQwh0Yq7uciQO-45">
          <mxGeometry relative="1" as="geometry" />
        </mxCell>
        <mxCell id="LPUQlXUYQwh0Yq7uciQO-42" value="83dcd20" style="ellipse;whiteSpace=wrap;html=1;aspect=fixed;strokeWidth=2;fillColor=#dae8fc;strokeColor=#6c8ebf;fontSize=16;" vertex="1" parent="1">
          <mxGeometry x="556" y="2470" width="80" height="80" as="geometry" />
        </mxCell>
        <mxCell id="LPUQlXUYQwh0Yq7uciQO-43" value="&quot;first commit&quot;" style="text;html=1;align=center;verticalAlign=middle;whiteSpace=wrap;rounded=0;fontSize=16;" vertex="1" parent="1">
          <mxGeometry x="546" y="2440" width="104.62" height="30" as="geometry" />
        </mxCell>
        <mxCell id="LPUQlXUYQwh0Yq7uciQO-45" value="&lt;font style=&quot;color: rgb(255, 74, 38);&quot;&gt;6ac5ef3&lt;/font&gt;" style="ellipse;whiteSpace=wrap;html=1;aspect=fixed;strokeWidth=2;fillColor=#dae8fc;strokeColor=#6c8ebf;fontSize=16;" vertex="1" parent="1">
          <mxGeometry x="707" y="2470" width="80" height="80" as="geometry" />
        </mxCell>
        <mxCell id="LPUQlXUYQwh0Yq7uciQO-46" value="&quot;new commit message&quot;" style="text;html=1;align=center;verticalAlign=middle;whiteSpace=wrap;rounded=0;fontSize=16;fontColor=#FF4A26;" vertex="1" parent="1">
          <mxGeometry x="684.94" y="2433" width="124.12" height="37" as="geometry" />
        </mxCell>
        <mxCell id="LPUQlXUYQwh0Yq7uciQO-50" style="edgeStyle=orthogonalEdgeStyle;rounded=0;orthogonalLoop=1;jettySize=auto;html=1;endArrow=none;endFill=0;startArrow=classic;startFill=1;strokeWidth=2;" edge="1" parent="1">
          <mxGeometry relative="1" as="geometry">
            <mxPoint x="744.4999999999999" y="2644" as="targetPoint" />
            <mxPoint x="744.4999999999999" y="2604" as="sourcePoint" />
          </mxGeometry>
        </mxCell>
        <mxCell id="LPUQlXUYQwh0Yq7uciQO-51" value="HEAD" style="text;html=1;align=center;verticalAlign=middle;whiteSpace=wrap;rounded=0;fillColor=#f8cecc;strokeColor=#b85450;fontSize=16;" vertex="1" parent="1">
          <mxGeometry x="715" y="2623" width="60" height="30" as="geometry" />
        </mxCell>
        <mxCell id="LPUQlXUYQwh0Yq7uciQO-54" value="master" style="text;html=1;align=center;verticalAlign=middle;whiteSpace=wrap;rounded=0;fillColor=#dae8fc;strokeColor=#6c8ebf;fontSize=16;" vertex="1" parent="1">
          <mxGeometry x="715" y="2574" width="60" height="30" as="geometry" />
        </mxCell>
        <mxCell id="LPUQlXUYQwh0Yq7uciQO-55" value="" style="endArrow=classic;html=1;rounded=0;entryX=0.5;entryY=1;entryDx=0;entryDy=0;exitX=0.5;exitY=0;exitDx=0;exitDy=0;strokeWidth=2;" edge="1" parent="1" source="LPUQlXUYQwh0Yq7uciQO-54">
          <mxGeometry width="50" height="50" relative="1" as="geometry">
            <mxPoint x="685" y="2620" as="sourcePoint" />
            <mxPoint x="744.9999999999999" y="2550" as="targetPoint" />
          </mxGeometry>
        </mxCell>
      </root>
    </mxGraphModel>
  </diagram>
</mxfile>
